<svg width="114" height="114" viewBox="0 0 114 114" fill="none" xmlns="http://www.w3.org/2000/svg">
<g clip-path="url(#clip0_5150_1460)">
<path d="M13.0682 58.0076C14.3723 57.2387 15.7186 56.512 17.051 55.8274L16.1333 54.0413C14.7448 54.7539 13.3845 55.4946 12.0525 56.2915L13.0683 58.0357L13.0682 58.0076ZM21.1466 53.8441C22.5353 53.2158 23.9381 52.6297 25.3551 52.0857L24.6058 50.2159C23.1608 50.7878 21.7298 51.3738 20.313 52.002L21.1325 53.83L21.1466 53.8441ZM29.6345 50.5383C31.0797 50.0506 32.5251 49.6191 33.9987 49.2157L33.4458 47.2902C31.9582 47.7076 30.4707 48.153 28.9974 48.6406L29.6345 50.5383ZM38.4196 48.09C39.9074 47.7569 41.3952 47.4519 42.8973 47.1891L42.5409 45.2079C41.0107 45.4707 39.4948 45.7756 37.9649 46.1226L38.4196 48.09ZM47.4036 46.513C48.9199 46.3204 50.4222 46.1699 51.9527 46.0476L51.7789 44.0529C50.2203 44.1751 48.6899 44.3255 47.1455 44.518L47.4036 46.513ZM56.5024 45.807C58.019 45.7549 59.5498 45.7449 61.0667 45.7771L61.0753 43.7688C59.5164 43.7506 57.9715 43.7464 56.4128 43.8125L56.4884 45.821L56.5024 45.807ZM65.6315 45.9438C67.1485 46.0321 68.6656 46.1766 70.1829 46.3492L70.4023 44.3555C68.8569 44.1828 67.2977 44.0523 65.7526 43.9639L65.6316 45.9718L65.6315 45.9438ZM74.7067 46.9511C76.2101 47.1939 77.7136 47.4648 79.2031 47.7777L79.5911 45.8126C78.0734 45.4995 76.5278 45.2145 74.9964 44.9717L74.6927 46.9651L74.7067 46.9511ZM83.6579 48.8148C85.1335 49.198 86.5953 49.6232 88.0571 50.0765L88.6418 48.1681C87.1659 47.7007 85.648 47.2753 84.1583 46.8781L83.6579 48.8148ZM92.3866 51.5487C93.8065 52.0721 95.2405 52.6377 96.6465 53.2314L97.428 51.3796C95.9938 50.7578 94.5458 50.2062 93.0978 49.6546L92.4147 51.5488L92.3866 51.5487ZM100.795 55.1384C102.159 55.8021 103.509 56.508 104.845 57.2559L105.809 55.5029C104.445 54.7549 103.067 54.021 101.661 53.3431L100.795 55.1384Z" fill="#919191"/>
<path d="M95.5845 60.5739L95.0597 58.6484L104.589 56.0757L101.292 46.7275L103.186 46.0725L107.205 57.459L95.5845 60.5739Z" fill="#919191"/>
<circle cx="8.69433" cy="59.1213" r="3.91825" transform="rotate(-135 8.69433 59.1213)" stroke="#919191" stroke-width="2"/>
</g>
<defs>
<clipPath id="clip0_5150_1460">
<rect width="76.2328" height="83.6102" fill="white" transform="matrix(-0.707107 -0.707107 -0.707107 0.707107 113.026 53.9048)"/>
</clipPath>
</defs>
</svg>
