<svg width="138" height="145" viewBox="0 0 138 145" fill="none" xmlns="http://www.w3.org/2000/svg">
<g filter="url(#filter0_d_5150_1441)">
<path d="M24 36.853C24 34.6457 25.2119 32.6166 27.1554 31.5702L66.1554 10.5702C67.9313 9.61393 70.0687 9.61393 71.8446 10.5702L110.845 31.5702C112.788 32.6166 114 34.6457 114 36.853V78.147C114 80.3543 112.788 82.3833 110.845 83.4298L71.8446 104.43C70.0687 105.386 67.9313 105.386 66.1554 104.43L27.1554 83.4298C25.2119 82.3833 24 80.3543 24 78.147V36.853Z" fill="#3F3F46"/>
<path d="M24.5 36.853C24.5 34.8296 25.6109 32.9697 27.3925 32.0104L66.3924 11.0104C68.0203 10.1339 69.9797 10.1338 71.6076 11.0104L110.608 32.0104C112.389 32.9697 113.5 34.8296 113.5 36.853V78.147C113.5 80.1703 112.389 82.0303 110.608 82.9896L71.6076 103.99C69.9797 104.866 68.0203 104.866 66.3925 103.99L27.3924 82.9896C25.6109 82.0303 24.5 80.1703 24.5 78.147V36.853Z" stroke="#D9F99D"/>
</g>
<g clip-path="url(#clip0_5150_1441)">
<path opacity="0.4" d="M55.5 43.5C55.5 41.018 57.518 39 60 39H71.25V48C71.25 49.2445 72.2555 50.25 73.5 50.25H82.5V70.5C82.5 72.982 80.482 75 78 75H60C57.518 75 55.5 72.982 55.5 70.5V43.5ZM61.125 43.5C60.5062 43.5 60 44.0062 60 44.625C60 45.2438 60.5062 45.75 61.125 45.75H65.625C66.2437 45.75 66.75 45.2438 66.75 44.625C66.75 44.0062 66.2437 43.5 65.625 43.5H61.125ZM61.125 48C60.5062 48 60 48.5063 60 49.125C60 49.7437 60.5062 50.25 61.125 50.25H65.625C66.2437 50.25 66.75 49.7437 66.75 49.125C66.75 48.5063 66.2437 48 65.625 48H61.125ZM64.9359 65.8453L65.625 63.5391L66.7992 67.4484C66.9328 67.8914 67.3195 68.2078 67.7766 68.243C68.2336 68.2781 68.6766 68.0391 68.8805 67.6242L69.4992 66.3797C69.6188 66.1406 69.8578 65.993 70.118 65.993C70.3781 65.993 70.6242 66.1406 70.7367 66.3797L71.3555 67.6242C71.5453 68.0039 71.9391 68.243 72.3609 68.243H76.8609C77.4797 68.243 77.9859 67.7367 77.9859 67.118C77.9859 66.4992 77.4797 65.993 76.8609 65.993H73.0711L72.7617 65.3742C72.2625 64.3828 71.243 63.75 70.125 63.75C69.4219 63.75 68.7609 63.9961 68.2406 64.432L67.425 61.718C67.1859 60.9164 66.4547 60.375 65.625 60.375C64.7953 60.375 64.0641 60.9164 63.825 61.718L62.7773 65.1984C62.6367 65.6766 62.1937 66 61.7016 66H61.125C60.5062 66 60 66.5063 60 67.125C60 67.7437 60.5062 68.25 61.125 68.25H61.7016C63.1922 68.25 64.507 67.2727 64.9359 65.8453Z" fill="#BEF264"/>
<path d="M82.5 50.25L71.25 39V48C71.25 49.2445 72.2555 50.25 73.5 50.25H82.5ZM64.9359 65.8453L65.625 63.5391L66.7992 67.4484C66.9328 67.8914 67.3195 68.2078 67.7766 68.243C68.2336 68.2781 68.6766 68.0391 68.8805 67.6242L69.4992 66.3797C69.6188 66.1406 69.8578 65.993 70.118 65.993C70.3781 65.993 70.6242 66.1406 70.7367 66.3797L71.3555 67.6242C71.5453 68.0039 71.9391 68.243 72.3609 68.243H76.8609C77.4797 68.243 77.9859 67.7367 77.9859 67.118C77.9859 66.4992 77.4797 65.993 76.8609 65.993H73.0711L72.7617 65.3742C72.2625 64.3828 71.243 63.75 70.125 63.75C69.4219 63.75 68.7609 63.9961 68.2406 64.432L67.425 61.718C67.1859 60.9164 66.4547 60.375 65.625 60.375C64.7953 60.375 64.0641 60.9164 63.825 61.718L62.7773 65.1984C62.6367 65.6766 62.1937 66 61.7016 66H61.125C60.5062 66 60 66.5063 60 67.125C60 67.7437 60.5062 68.25 61.125 68.25H61.7016C63.1922 68.25 64.507 67.2727 64.9359 65.8453Z" fill="#BEF264"/>
</g>
<defs>
<filter id="filter0_d_5150_1441" x="0" y="0.853027" width="138" height="143.294" filterUnits="userSpaceOnUse" color-interpolation-filters="sRGB">
<feFlood flood-opacity="0" result="BackgroundImageFix"/>
<feColorMatrix in="SourceAlpha" type="matrix" values="0 0 0 0 0 0 0 0 0 0 0 0 0 0 0 0 0 0 127 0" result="hardAlpha"/>
<feMorphology radius="6" operator="erode" in="SourceAlpha" result="effect1_dropShadow_5150_1441"/>
<feOffset dy="15"/>
<feGaussianBlur stdDeviation="15"/>
<feColorMatrix type="matrix" values="0 0 0 0 0 0 0 0 0 0 0 0 0 0 0 0 0 0 0.55 0"/>
<feBlend mode="multiply" in2="BackgroundImageFix" result="effect1_dropShadow_5150_1441"/>
<feBlend mode="normal" in="SourceGraphic" in2="effect1_dropShadow_5150_1441" result="shape"/>
</filter>
<clipPath id="clip0_5150_1441">
<rect width="27" height="36" fill="white" transform="translate(55.5 39)"/>
</clipPath>
</defs>
</svg>
