<svg width="113" height="38" viewBox="0 0 113 38" fill="none" xmlns="http://www.w3.org/2000/svg">
<path d="M0 13.4641C0 11.2568 1.21194 9.22779 3.1554 8.18131L14.0919 2.29245C15.8677 1.33622 18.0052 1.33622 19.7811 2.29245L30.7175 8.18131C32.661 9.22779 33.8729 11.2568 33.8729 13.4641V24.5359C33.8729 26.7432 32.661 28.7722 30.7175 29.8187L19.7811 35.7076C18.0052 36.6638 15.8677 36.6638 14.0919 35.7076L3.15541 29.8187C1.21195 28.7722 0 26.7432 0 24.5359V13.4641Z" fill="#E2FE26"/>
<path d="M7.51232 20.8653L16.0449 18.5325V13.1375H4.62203V15.9464H13.0905V16.3907L4.55933 18.7061V24.2285H16.1376V21.324H7.51232V20.8653Z" fill="#161616"/>
<path d="M26.6677 13.1534L23.2301 18.2937H21.0895V13.1375H18.1365V24.2762H21.0895V21.0867H24.5427L26.6677 24.2762H30.1523L26.4183 18.7076L30.1523 13.1534H26.6677Z" fill="#161616"/>
<path d="M54.9114 26.6347H49.5503L44.3211 20.2446L47.9688 15.4581H41.8177V26.6347H37.6653V11.2864H54.0109V14.3388L49.5732 20.1357L54.9114 26.6362V26.6347Z" fill="white"/>
<path d="M71.7617 11.2864V26.6362H56.0083V23.5178L65.126 15.4151H56.7768V11.2864H71.7617ZM67.6094 22.4845V18.7298L63.5889 22.4845H67.6094Z" fill="white"/>
<path d="M94.1495 11.2419V26.6347H89.9757V15.1285H86.6578V26.6347H82.4839V15.1285H78.9911V26.6347H74.8387V11.2419H94.151H94.1495Z" fill="white"/>
<path d="M112.999 23.9778H101.376V26.6347H97.2237V11.2634H112.999V23.9778ZM108.823 15.4366H101.376V20.0912H108.823V15.4366Z" fill="white"/>
</svg>
