<svg width="95" height="38" viewBox="0 0 95 38" fill="none" xmlns="http://www.w3.org/2000/svg">
<g clip-path="url(#clip0_5153_197)">
<path d="M52.5254 13.7105H39.4141V27.0179H56.8181V10.9119H52.5254V13.7105ZM52.5254 22.659H43.6862V17.7715H52.5254V22.659Z" fill="white"/>
<path d="M59.0742 27.0194H74.5066V22.7054H65.9196L75.2749 14.2166V10.9807H59.0742V27.0194ZM63.3449 15.3172H67.4798L63.3449 19.2404V15.3172Z" fill="white"/>
<path d="M90.9556 19.1267L94.9771 17.4975V11.0272H90.4351V15.9147L86.278 17.4286L82.0973 15.8923V11.0272H77.5553V17.4975L81.6225 19.1267L77.5332 20.5956V27.0883H82.0973V22.6605L86.278 21.0089L90.4351 22.6605V27.0883H95.0007V20.5956L90.9556 19.1267Z" fill="white"/>
<path d="M0.320312 13.1476C0.320312 10.9403 1.53225 8.91122 3.47571 7.86474L15.0002 1.65927C16.776 0.703039 18.9135 0.70304 20.6894 1.65927L32.2138 7.86474C34.1573 8.91122 35.3692 10.9403 35.3692 13.1476V24.8525C35.3692 27.0598 34.1573 29.0889 32.2138 30.1353L20.6894 36.3408C18.9135 37.2971 16.776 37.2971 15.0002 36.3408L3.47571 30.1353C1.53225 29.0889 0.320312 27.0598 0.320312 24.8525V13.1476Z" fill="#E2FE26"/>
<path d="M8.09458 20.93L16.9234 18.5161V12.9338H5.10395V15.8403H13.8664V16.3L5.03906 18.6958V24.4099H17.0193V21.4046H8.09458V20.93Z" fill="#161616"/>
<path d="M27.9153 12.9503L24.3584 18.2691H22.1434V12.9338H19.0879V24.4593H22.1434V21.1591H25.7165L27.9153 24.4593H31.5208L27.6572 18.6973L31.5208 12.9503H27.9153Z" fill="#161616"/>
</g>
<defs>
<clipPath id="clip0_5153_197">
<rect width="95" height="38" fill="white"/>
</clipPath>
</defs>
</svg>
