<svg width="138" height="145" viewBox="0 0 138 145" fill="none" xmlns="http://www.w3.org/2000/svg">
<g filter="url(#filter0_d_5150_1451)">
<path d="M24 36.853C24 34.6457 25.2119 32.6166 27.1554 31.5702L66.1554 10.5702C67.9313 9.61393 70.0687 9.61393 71.8446 10.5702L110.845 31.5702C112.788 32.6166 114 34.6457 114 36.853V78.147C114 80.3543 112.788 82.3833 110.845 83.4298L71.8446 104.43C70.0687 105.386 67.9313 105.386 66.1554 104.43L27.1554 83.4298C25.2119 82.3833 24 80.3543 24 78.147V36.853Z" fill="#3F3F46"/>
<path d="M24.5 36.853C24.5 34.8296 25.6109 32.9697 27.3925 32.0104L66.3924 11.0104C68.0203 10.1339 69.9797 10.1338 71.6076 11.0104L110.608 32.0104C112.389 32.9697 113.5 34.8296 113.5 36.853V78.147C113.5 80.1703 112.389 82.0303 110.608 82.9896L71.6076 103.99C69.9797 104.866 68.0203 104.866 66.3925 103.99L27.3924 82.9896C25.6109 82.0303 24.5 80.1703 24.5 78.147V36.853Z" stroke="#D9F99D"/>
</g>
<rect x="50.5" y="39" width="36" height="36" rx="18" fill="#BEF264" fill-opacity="0.4"/>
<path d="M73.984 58.2017H76.6278C76.6965 58.2017 76.7651 58.1674 76.7995 58.133C76.8338 58.0987 76.8681 58.03 76.8681 57.9614V56.0386C76.8681 55.97 76.8338 55.9013 76.7995 55.867C76.7651 55.8326 76.6965 55.7983 76.6278 55.7983H72.9196L70.0012 49.206C69.9668 49.1373 69.9325 49.103 69.8982 49.0687C69.8638 49.0343 69.7952 49 69.7265 49H67.3231C67.2544 49 67.1857 49.0343 67.1514 49.0687C67.0827 49.103 67.0484 49.1373 67.0484 49.206L64.1299 55.7983H60.3531C60.3188 55.7983 60.2844 55.7983 60.2501 55.8326C60.2158 55.8326 60.1814 55.867 60.1814 55.9013C60.1471 55.9356 60.1471 55.9356 60.1471 55.97C60.1471 56.0043 60.1471 56.0386 60.1471 56.073V57.9957C60.1471 58.0644 60.1814 58.133 60.2158 58.1674C60.2501 58.2017 60.3188 58.2361 60.3874 58.2361H63.0312L60.1471 64.691C60.1471 64.7253 60.1128 64.7597 60.1471 64.794C60.1471 64.8283 60.1471 64.8627 60.1814 64.897C60.2158 64.9313 60.2158 64.9657 60.2501 64.9657C60.2844 64.9657 60.3188 65 60.3531 65H62.4819C62.5505 65 62.6192 64.9657 62.6535 64.9313C62.7222 64.897 62.7565 64.8627 62.7565 64.794L68.4561 51.9528L74.1557 64.794C74.19 64.8627 74.2243 64.897 74.2587 64.9313C74.3274 64.9657 74.3617 65 74.4304 65H76.5591C76.5935 65 76.6278 65 76.6621 64.9657C76.6965 64.9313 76.7308 64.9313 76.7651 64.897C76.7995 64.8627 76.7995 64.8283 76.7995 64.794C76.7995 64.7597 76.7995 64.7253 76.7651 64.691L73.984 58.2017Z" fill="#BEF264"/>
<defs>
<filter id="filter0_d_5150_1451" x="0" y="0.853027" width="138" height="143.294" filterUnits="userSpaceOnUse" color-interpolation-filters="sRGB">
<feFlood flood-opacity="0" result="BackgroundImageFix"/>
<feColorMatrix in="SourceAlpha" type="matrix" values="0 0 0 0 0 0 0 0 0 0 0 0 0 0 0 0 0 0 127 0" result="hardAlpha"/>
<feMorphology radius="6" operator="erode" in="SourceAlpha" result="effect1_dropShadow_5150_1451"/>
<feOffset dy="15"/>
<feGaussianBlur stdDeviation="15"/>
<feColorMatrix type="matrix" values="0 0 0 0 0 0 0 0 0 0 0 0 0 0 0 0 0 0 0.55 0"/>
<feBlend mode="multiply" in2="BackgroundImageFix" result="effect1_dropShadow_5150_1451"/>
<feBlend mode="normal" in="SourceGraphic" in2="effect1_dropShadow_5150_1451" result="shape"/>
</filter>
</defs>
</svg>
