<svg width="138" height="145" viewBox="0 0 138 145" fill="none" xmlns="http://www.w3.org/2000/svg">
<g filter="url(#filter0_d_5150_1421)">
<path d="M24 36.853C24 34.6457 25.2119 32.6166 27.1554 31.5702L66.1554 10.5702C67.9313 9.61393 70.0687 9.61393 71.8446 10.5702L110.845 31.5702C112.788 32.6166 114 34.6457 114 36.853V78.147C114 80.3543 112.788 82.3833 110.845 83.4298L71.8446 104.43C70.0687 105.386 67.9313 105.386 66.1554 104.43L27.1554 83.4298C25.2119 82.3833 24 80.3543 24 78.147V36.853Z" fill="#3F3F46"/>
<path d="M24.5 36.853C24.5 34.8296 25.6109 32.9697 27.3925 32.0104L66.3924 11.0104C68.0203 10.1339 69.9797 10.1338 71.6076 11.0104L110.608 32.0104C112.389 32.9697 113.5 34.8296 113.5 36.853V78.147C113.5 80.1703 112.389 82.0303 110.608 82.9896L71.6076 103.99C69.9797 104.866 68.0203 104.866 66.3925 103.99L27.3924 82.9896C25.6109 82.0303 24.5 80.1703 24.5 78.147V36.853Z" stroke="#D9F99D"/>
</g>
<g clip-path="url(#clip0_5150_1421)">
<path opacity="0.4" d="M61.75 45.75C61.75 44.5055 62.7555 43.5 64 43.5H84.25C85.4945 43.5 86.5 44.5055 86.5 45.75C86.5 46.9945 85.4945 48 84.25 48H64C62.7555 48 61.75 46.9945 61.75 45.75ZM61.75 57C61.75 55.7555 62.7555 54.75 64 54.75H84.25C85.4945 54.75 86.5 55.7555 86.5 57C86.5 58.2445 85.4945 59.25 84.25 59.25H64C62.7555 59.25 61.75 58.2445 61.75 57ZM64 66H84.25C85.4945 66 86.5 67.0055 86.5 68.25C86.5 69.4945 85.4945 70.5 84.25 70.5H64C62.7555 70.5 61.75 69.4945 61.75 68.25C61.75 67.0055 62.7555 66 64 66Z" fill="#BEF264"/>
<path d="M55 50.25C56.1935 50.25 57.3381 49.7759 58.182 48.932C59.0259 48.0881 59.5 46.9435 59.5 45.75C59.5 44.5565 59.0259 43.4119 58.182 42.568C57.3381 41.7241 56.1935 41.25 55 41.25C53.8065 41.25 52.6619 41.7241 51.818 42.568C50.9741 43.4119 50.5 44.5565 50.5 45.75C50.5 46.9435 50.9741 48.0881 51.818 48.932C52.6619 49.7759 53.8065 50.25 55 50.25ZM55 55.3125C55.4476 55.3125 55.8768 55.4903 56.1932 55.8068C56.5097 56.1232 56.6875 56.5524 56.6875 57C56.6875 57.4476 56.5097 57.8768 56.1932 58.1932C55.8768 58.5097 55.4476 58.6875 55 58.6875C54.5524 58.6875 54.1232 58.5097 53.8068 58.1932C53.4903 57.8768 53.3125 57.4476 53.3125 57C53.3125 56.5524 53.4903 56.1232 53.8068 55.8068C54.1232 55.4903 54.5524 55.3125 55 55.3125ZM55 61.5C56.1935 61.5 57.3381 61.0259 58.182 60.182C59.0259 59.3381 59.5 58.1935 59.5 57C59.5 55.8065 59.0259 54.6619 58.182 53.818C57.3381 52.9741 56.1935 52.5 55 52.5C53.8065 52.5 52.6619 52.9741 51.818 53.818C50.9741 54.6619 50.5 55.8065 50.5 57C50.5 58.1935 50.9741 59.3381 51.818 60.182C52.6619 61.0259 53.8065 61.5 55 61.5ZM55 66.5625C55.4476 66.5625 55.8768 66.7403 56.1932 67.0568C56.5097 67.3732 56.6875 67.8024 56.6875 68.25C56.6875 68.6976 56.5097 69.1268 56.1932 69.4432C55.8768 69.7597 55.4476 69.9375 55 69.9375C54.5524 69.9375 54.1232 69.7597 53.8068 69.4432C53.4903 69.1268 53.3125 68.6976 53.3125 68.25C53.3125 67.8024 53.4903 67.3732 53.8068 67.0568C54.1232 66.7403 54.5524 66.5625 55 66.5625ZM55 72.75C56.1935 72.75 57.3381 72.2759 58.182 71.432C59.0259 70.5881 59.5 69.4435 59.5 68.25C59.5 67.0565 59.0259 65.9119 58.182 65.068C57.3381 64.2241 56.1935 63.75 55 63.75C53.8065 63.75 52.6619 64.2241 51.818 65.068C50.9741 65.9119 50.5 67.0565 50.5 68.25C50.5 69.4435 50.9741 70.5881 51.818 71.432C52.6619 72.2759 53.8065 72.75 55 72.75Z" fill="#BEF264"/>
</g>
<defs>
<filter id="filter0_d_5150_1421" x="0" y="0.853027" width="138" height="143.294" filterUnits="userSpaceOnUse" color-interpolation-filters="sRGB">
<feFlood flood-opacity="0" result="BackgroundImageFix"/>
<feColorMatrix in="SourceAlpha" type="matrix" values="0 0 0 0 0 0 0 0 0 0 0 0 0 0 0 0 0 0 127 0" result="hardAlpha"/>
<feMorphology radius="6" operator="erode" in="SourceAlpha" result="effect1_dropShadow_5150_1421"/>
<feOffset dy="15"/>
<feGaussianBlur stdDeviation="15"/>
<feColorMatrix type="matrix" values="0 0 0 0 0 0 0 0 0 0 0 0 0 0 0 0 0 0 0.55 0"/>
<feBlend mode="multiply" in2="BackgroundImageFix" result="effect1_dropShadow_5150_1421"/>
<feBlend mode="normal" in="SourceGraphic" in2="effect1_dropShadow_5150_1421" result="shape"/>
</filter>
<clipPath id="clip0_5150_1421">
<rect width="36" height="36" fill="white" transform="translate(50.5 39)"/>
</clipPath>
</defs>
</svg>
