<svg width="45" height="10" viewBox="0 0 45 10" fill="none" xmlns="http://www.w3.org/2000/svg">
<path d="M25.0027 0.149498H27.7104L26.3482 9.86713H23.6405L25.0027 0.149498ZM21.5891 0.149498L19.7618 5.74749L18.9644 0.149498H17.0707L14.6787 5.73088L14.3797 0.149498H11.7551L12.6687 9.86713H14.8449L17.5359 3.72095L18.4828 9.86713H20.6256L24.1638 0.149498H21.5891ZM44.3217 5.79731H37.8931C37.9263 7.05987 38.6822 7.8904 39.795 7.8904C40.634 7.8904 41.2984 7.44187 41.8134 6.58643L43.9836 7.57314C43.2378 9.0424 41.6663 10 39.7286 10C37.0874 10 35.3349 8.22258 35.3349 5.36549C35.3349 2.22592 37.3947 0 40.3017 0C42.8598 0 44.4712 1.72758 44.4712 4.4186C44.4712 4.86713 44.4214 5.31566 44.3217 5.79731ZM41.913 3.93689C41.913 2.80732 41.2818 2.09303 40.2685 2.09303C39.2553 2.09303 38.3582 2.84054 38.1257 3.93689H41.913ZM3.29245 3.07808L0.52832 6.30818H5.46356L6.01838 4.78489H3.90375L5.19611 3.29071L5.20027 3.25084L4.35973 1.80483H8.13968L5.2094 9.86713H7.2144L10.7526 0.149498H1.61138L3.29162 3.07808H3.29245ZM32.1123 2.09303C33.0674 2.09303 33.9047 2.60633 34.6356 3.48672L35.0194 0.747509C34.3382 0.286549 33.4163 0 32.1954 0C29.7701 0 28.408 1.42027 28.408 3.22261C28.408 4.47263 29.1057 5.23672 30.2519 5.73088L30.8001 5.98011C31.8216 6.41614 32.0957 6.63205 32.0957 7.09309C32.0957 7.55403 31.6348 7.8738 30.9329 7.8738C29.7742 7.8779 28.8357 7.28409 28.1298 6.27076L27.7386 9.06231C28.5426 9.67533 29.5733 10 30.9329 10C33.2377 10 34.6539 8.67111 34.6539 6.82725C34.6539 5.5731 34.0974 4.76748 32.6938 4.13623L32.0957 3.85383C31.2651 3.48423 30.9828 3.28075 30.9828 2.87376C30.9828 2.43357 31.369 2.09303 32.1123 2.09303Z" fill="#D4D4D8"/>
</svg>
